<svg width="190" height="190" viewBox="0 0 190 190" fill="none" xmlns="http://www.w3.org/2000/svg">
<path fill-rule="evenodd" clip-rule="evenodd" d="M25 10C16.7157 10 10 16.7157 10 25V165C10 172.625 15.6891 178.921 23.054 179.875L131.464 71.4645C133.417 69.5118 136.583 69.5118 138.536 71.4645L180 112.929V25C180 16.7157 173.284 10 165 10H25ZM190 124.994V25C190 11.1929 178.807 0 165 0H25C11.1929 0 0 11.1929 0 25V165C0 178.807 11.1929 190 25 190H165C178.807 190 190 178.807 190 165V125.006C190 125.002 190 124.998 190 124.994ZM180 127.071L135 82.0711L37.0711 180H165C173.284 180 180 173.284 180 165V127.071ZM60 50C54.4772 50 50 54.4772 50 60C50 65.5229 54.4772 70 60 70C65.5229 70 70 65.5229 70 60C70 54.4772 65.5229 50 60 50ZM40 60C40 48.9543 48.9543 40 60 40C71.0457 40 80 48.9543 80 60C80 71.0457 71.0457 80 60 80C48.9543 80 40 71.0457 40 60Z" fill="#241C15"/>
</svg>
